Patient4_TMGait_0pt6_01_right_27_GRF.mot
version=1
nRows=72
nColumns=19
inDegrees=no
endheader
time	F1x	F1y	F1z	M1x	M1y	M1z	F2x	F2y	F2z	M2x	M2y	M2z	EC1x	EC1y	EC1z	EC2x	EC2y	EC2z
32.25	3.0445	716.7173	46.5455	-262.5484	-42.344	692.5912	4.2872	2.7322	7.5896	-0.93129	-8.8054	-3.016	-0.0592	0.0182	-0.0073	-0.0462	0.0165	0.9585
32.2621	2.0611	713.0761	49.8043	-260.3012	-44.8921	686.0293	2.7278	2.7702	5.0484	-0.26443	-5.753	-1.0069	-0.0592	0.0182	-0.0073	-0.0462	0.0165	0.9585
32.2743	1.7361	709.8665	52.4855	-258.1195	-46.6927	679.5308	1.4041	2.8212	2.9094	0.30861	-3.1835	0.71586	-0.0592	0.0182	-0.0073	-0.0462	0.0165	0.9585
32.2864	2.0897	707.8309	54.4651	-256.3224	-47.6749	673.9252	0.3826	2.8898	1.2887	0.75674	-1.2345	2.0726	-0.0592	0.0182	-0.0073	-0.0462	0.0165	0.9585
32.2986	3.0389	707.4997	55.7597	-255.1425	-47.9018	669.7838	-0.32627	2.9621	0.17897	1.0786	0.10151	3.0465	-0.0592	0.0182	-0.0073	-0.0462	0.0165	0.9585
32.3107	4.4515	709.0609	56.5366	-254.67	-47.5686	667.3267	-0.77799	3.0324	-0.50201	1.29	0.92659	3.6879	-0.0592	0.0182	-0.0073	-0.0462	0.0165	0.9585
32.3229	6.2143	712.3576	56.9456	-254.8575	-46.8363	666.4256	-1.0371	3.0617	-0.85792	1.4027	1.3665	4.0161	-0.0592	0.0182	-0.0073	-0.0462	0.0165	0.9585
32.335	8.231	716.9567	57.1685	-255.5454	-45.8883	666.6909	-1.1786	3.0156	-1	1.4262	1.5555	4.0701	-0.0592	0.0182	-0.0073	-0.0462	0.0165	0.9585
32.3471	10.4553	722.263	57.3159	-256.5143	-44.8293	667.57	-1.2548	2.8442	-1.0183	1.3621	1.6027	3.8528	-0.0592	0.0182	-0.0073	-0.0462	0.0165	0.9585
32.3593	12.8829	727.6696	57.494	-257.5385	-43.7492	668.5008	-1.3185	2.4835	-0.98871	1.2016	1.5998	3.3479	-0.0592	0.0182	-0.0073	-0.0462	0.0165	0.9585
32.3714	15.524	732.6935	57.7362	-258.4432	-42.665	669.0351	-1.3814	1.8666	-0.95994	0.92778	1.5978	2.5221	-0.0592	0.0182	-0.0073	-0.0462	0.0165	0.9585
32.3836	18.3825	737.0648	58.0583	-259.1311	-41.581	668.9322	-1.4468	0.91813	-0.96054	0.51535	1.6213	1.3212	-0.0592	0.0182	-0.0073	-0.0462	0.0165	0.9585
32.3957	21.4551	740.7281	58.4402	-259.5822	-40.4759	668.1584	-1.4919	-0.41836	-0.9942	-0.056968	1.664	-0.30238	-0.0592	0.0182	-0.0073	-0.0462	0.0165	0.9585
32.4079	24.6917	743.8102	58.8708	-259.8426	-39.3545	666.8466	-1.4659	-2.1384	-1.0456	-0.78705	1.6926	-2.3383	-0.0592	0.0182	-0.0073	-0.0462	0.0165	0.9585
32.42	28.0281	746.5628	59.3467	-260.004	-38.2334	665.2442	-1.2994	-4.1348	-1.0873	-1.6297	1.6477	-4.6568	-0.0592	0.0182	-0.0073	-0.0462	0.0165	0.9585
32.4321	31.3744	749.2563	59.8777	-260.1654	-37.1475	663.6269	-0.89182	-6.1255	-1.0667	-2.4686	1.4314	-6.9391	-0.0592	0.0182	-0.0073	-0.0462	0.0165	0.9585
32.4443	34.6237	752.0733	60.4783	-260.3962	-36.1444	662.188	-0.13122	-7.583	-0.91919	-3.0849	0.92544	-8.5916	-0.0592	0.0182	-0.0073	-0.0462	0.0165	0.9585
32.4564	37.6797	755.0578	61.1591	-260.714	-35.2669	660.9945	1.0994	-7.6811	-0.5602	-3.1287	-0.0067221	-8.6969	-0.0592	0.0182	-0.0073	-0.0462	0.0165	0.9585
32.4686	40.501	758.0891	61.9207	-261.0779	-34.5358	659.9509	2.8717	-5.2334	0.091483	-2.0968	-1.4783	-5.9275	-0.0592	0.0182	-0.0073	-0.0462	0.0165	0.9585
32.4807	43.0981	760.8736	62.7313	-261.3909	-33.9275	658.7929	5.1998	1.3026	1.1182	0.66645	-3.5742	1.4444	-0.0592	0.0182	-0.0073	-0.0462	0.0165	0.9585
32.4929	45.5255	762.9401	63.5251	-261.4994	-33.3772	657.1163	7.9407	13.7321	2.5705	5.9247	-6.2823	15.4508	-0.0592	0.0182	-0.0073	-0.0462	0.0165	0.9585
32.505	47.8913	763.5757	64.1761	-261.1713	-32.7568	654.3105	10.7426	33.8736	4.4384	14.4451	-9.4303	38.1272	-0.0592	0.0182	-0.0073	-0.0462	0.0165	0.9585
32.5171	50.2859	761.7436	64.5118	-260.0661	-31.9051	649.5104	12.9178	63.093	6.5955	26.8007	-12.5784	71.0003	-0.0592	0.0182	-0.0073	-0.0462	0.0165	0.9585
32.5293	52.7707	756.0698	64.2936	-257.7304	-30.6192	641.5695	13.4184	101.613	8.7679	43.0796	-14.9762	114.3161	-0.0592	0.0182	-0.0073	-0.0462	0.0165	0.9585
32.5414	55.3025	744.9213	63.2471	-253.6227	-28.706	629.1625	10.995	147.6759	10.5456	62.5253	-15.6329	166.0967	-0.0592	0.0182	-0.0073	-0.0462	0.0165	0.9585
32.5536	57.7018	726.5808	61.1113	-247.1716	-26.0373	610.9183	5.1976	197.22	11.1863	83.3857	-13.5709	221.7846	-0.0592	0.0182	-0.0073	-0.0462	0.0165	0.9585
32.5657	59.6489	699.6182	57.714	-237.8949	-22.6066	585.752	-2.7804	244.8748	10.1366	103.3614	-8.7462	275.2761	-0.0592	0.0182	-0.0073	-0.0462	0.0165	0.9585
32.5779	60.7589	663.2149	53.0549	-225.5068	-18.5647	553.0877	-11.2505	286.3252	7.38	120.6365	-1.9222	321.5444	-0.0592	0.0182	-0.0073	-0.0462	0.0165	0.9585
32.59	60.6604	617.4433	47.3283	-210.0067	-14.1974	513.086	-18.946	320.6602	3.3388	134.8267	5.8992	359.3912	-0.0592	0.0182	-0.0073	-0.0462	0.0165	0.9585
32.6021	59.0942	563.2365	40.8734	-191.6799	-9.852	466.5859	-25.2495	349.5248	-1.2939	146.6484	13.6989	390.5869	-0.0592	0.0182	-0.0073	-0.0462	0.0165	0.9585
32.6143	55.926	502.2944	34.0808	-171.0689	-5.8587	415.0265	-30.0309	375.5543	-5.9176	157.2474	20.7674	418.0636	-0.0592	0.0182	-0.0073	-0.0462	0.0165	0.9585
32.6264	51.1268	436.92	27.3451	-148.926	-2.5101	360.3023	-33.4725	401.5278	-10.0689	167.8201	26.6838	444.925	-0.0592	0.0182	-0.0073	-0.0462	0.0165	0.9585
32.6386	44.7753	369.8545	21.032	-126.1624	-0.037292	304.6313	-35.8136	429.8662	-13.5455	179.3969	31.3401	473.8187	-0.0592	0.0182	-0.0073	-0.0462	0.0165	0.9585
32.6507	37.1404	304.0629	15.4716	-103.778	1.4183	250.3745	-37.3528	462.4657	-16.4445	192.7486	34.9775	506.8208	-0.0592	0.0182	-0.0073	-0.0462	0.0165	0.9585
32.6629	28.6841	242.4014	10.872	-82.7528	1.874	199.7616	-38.4195	500.3737	-19.0853	208.2601	38.089	545.1189	-0.0592	0.0182	-0.0073	-0.0462	0.0165	0.9585
32.675	20.0325	187.2573	7.3267	-63.9159	1.4823	154.6275	-39.3847	543.4316	-21.9154	225.7961	41.3045	588.6235	-0.0592	0.0182	-0.0073	-0.0462	0.0165	0.9585
32.6871	11.8786	140.1547	4.8017	-47.808	0.51232	116.1118	-40.6241	590.2946	-25.3289	244.7264	45.1897	635.9743	-0.0592	0.0182	-0.0073	-0.0462	0.0165	0.9585
32.6993	4.7938	101.5362	3.1697	-34.6005	-0.74417	84.5142	-42.4279	638.8253	-29.585	264.1082	50.1245	684.9664	-0.0592	0.0182	-0.0073	-0.0462	0.0165	0.9585
32.7114	-0.82639	70.9572	2.1989	-24.1535	-1.9772	59.4297	-44.8842	686.6776	-34.6335	282.9367	56.0894	733.1616	-0.0592	0.0182	-0.0073	-0.0462	0.0165	0.9585
32.7236	-4.798	47.4501	1.6671	-16.1343	-2.9609	40.0765	-47.8197	731.5482	-40.1765	300.2587	62.7049	778.1276	-0.0592	0.0182	-0.0073	-0.0462	0.0165	0.9585
32.7357	-7.062	29.8682	1.3471	-10.1485	-3.5052	25.5259	-50.8808	771.1825	-45.7867	315.1687	69.3829	817.4742	-0.0592	0.0182	-0.0073	-0.0462	0.0165	0.9585
32.7479	-7.7061	17.1209	1.0803	-5.8193	-3.5233	14.9172	-53.6164	803.3722	-51.0887	326.8047	75.5499	848.8596	-0.0592	0.0182	-0.0073	-0.0462	0.0165	0.9585
32.76	-6.98	8.2542	0.77458	-2.8206	-3.0317	7.4776	-55.5939	826.1867	-55.7601	334.4336	80.699	870.2433	-0.0592	0.0182	-0.0073	-0.0462	0.0165	0.9585
32.7721	-5.4584	2.5491	0.45325	-0.90354	-2.2499	2.6296	-56.4546	838.2935	-59.5744	337.5792	84.4608	880.2181	-0.0592	0.0182	-0.0073	-0.0462	0.0165	0.9585
32.7843	-3.7392	-0.6613	0.18091	0.16284	-1.4372	-0.14018	-56.0066	839.2968	-62.3829	336.1514	86.6206	878.3961	-0.0592	0.0182	-0.0073	-0.0462	0.0165	0.9585
32.7964	-2.1507	-2.0989	-0.017859	0.62449	-0.73035	-1.418	-54.2112	829.9488	-64.1376	330.5273	87.1382	865.5935	-0.0592	0.0182	-0.0073	-0.0462	0.0165	0.9585
32.8086	-0.86254	-2.3843	-0.15719	0.69577	-0.17501	-1.7001	-51.2192	812.1843	-64.8644	321.5545	86.1244	843.8621	-0.0592	0.0182	-0.0073	-0.0462	0.0165	0.9585
32.8207	0.098725	-2.0176	-0.23397	0.548	0.2136	-1.4219	-47.2748	788.7984	-64.6963	310.42	83.8348	816.13	-0.0592	0.0182	-0.0073	-0.0462	0.0165	0.9585
32.8329	0.7426	-1.3489	-0.2781	0.30229	0.46794	-0.86764	-42.715	763.0348	-63.8214	298.4751	80.612	785.7788	-0.0592	0.0182	-0.0073	-0.0462	0.0165	0.9585
32.845	1.1382	-0.59843	-0.29446	0.036141	0.61436	-0.22274	-37.8812	738.1185	-62.4579	287.0502	76.8256	756.1193	-0.0592	0.0182	-0.0073	-0.0462	0.0165	0.9585
32.8571	1.3389	0.11859	-0.31034	-0.21162	0.69588	0.42039	-33.1055	716.9139	-60.8247	277.3087	72.8328	730.076	-0.0592	0.0182	-0.0073	-0.0462	0.0165	0.9585
32.8693	1.4095	0.72948	-0.32013	-0.41917	0.72758	0.99578	-28.6446	701.558	-59.1309	270.1084	68.9469	709.797	-0.0592	0.0182	-0.0073	-0.0462	0.0165	0.9585
32.8814	1.3971	1.2237	-0.33722	-0.58455	0.74031	1.4999	-24.7034	693.2894	-57.5482	265.9273	65.4117	696.5073	-0.0592	0.0182	-0.0073	-0.0462	0.0165	0.9585
32.8936	1.3351	1.6055	-0.34543	-0.70893	0.733	1.925	-21.3767	692.3918	-56.1898	264.8504	62.3702	690.4512	-0.0592	0.0182	-0.0073	-0.0462	0.0165	0.9585
32.9057	1.2458	1.8972	-0.35357	-0.79957	0.72328	2.2652	-18.6716	698.3262	-55.1318	266.6257	59.8898	691.0649	-0.0592	0.0182	-0.0073	-0.0462	0.0165	0.9585
32.9179	1.1531	2.1164	-0.34845	-0.86273	0.70187	2.5184	-16.4924	709.8903	-54.4224	270.7368	57.9673	697.1432	-0.0592	0.0182	-0.0073	-0.0462	0.0165	0.9585
32.93	1.0575	2.2605	-0.34173	-0.8998	0.67447	2.6762	-14.7046	725.4216	-54.0839	276.4861	56.5547	707.0346	-0.0592	0.0182	-0.0073	-0.0462	0.0165	0.9585
32.9421	0.9486	2.3092	-0.32287	-0.90325	0.62415	2.7158	-13.1461	742.9761	-54.1018	283.0728	55.5625	718.8298	-0.0592	0.0182	-0.0073	-0.0462	0.0165	0.9585
32.9543	0.81921	2.2135	-0.29617	-0.85487	0.55239	2.5884	-11.6753	760.535	-54.4223	289.677	54.8724	730.5889	-0.0592	0.0182	-0.0073	-0.0462	0.0165	0.9585
32.9664	0.6579	1.9021	-0.25667	-0.72603	0.4502	2.2155	-10.163	776.1849	-54.9667	295.5319	54.3548	740.4928	-0.0592	0.0182	-0.0073	-0.0462	0.0165	0.9585
32.9786	0.46822	1.2738	-0.2082	-0.47752	0.32279	1.4922	-8.5156	788.2851	-55.6324	299.9898	53.8769	747.013	-0.0592	0.0182	-0.0073	-0.0462	0.0165	0.9585
32.9907	0.26632	0.21723	-0.15487	-0.065224	0.18205	0.30648	-6.6586	795.6233	-56.3159	302.5833	53.3169	749.0406	-0.0592	0.0182	-0.0073	-0.0462	0.0165	0.9585
33.0029	0.082727	-1.3623	-0.10451	0.54776	0.052042	-1.4491	-4.5574	797.5284	-56.9239	303.0629	52.5809	745.9935	-0.0592	0.0182	-0.0073	-0.0462	0.0165	0.9585
33.015	-0.030158	-3.5025	-0.067887	1.3766	-0.035088	-3.8183	-2.2152	793.8612	-57.401	301.393	51.6237	737.8028	-0.0592	0.0182	-0.0073	-0.0462	0.0165	0.9585
33.0271	0.01946	-6.1236	-0.056035	2.3911	-0.031809	-6.7148	0.35367	785.0067	-57.7279	297.7423	50.4397	724.8882	-0.0592	0.0182	-0.0073	-0.0462	0.0165	0.9585
33.0393	0.36155	-8.9495	-0.087265	3.4854	0.13188	-9.8385	3.1246	771.8347	-57.9335	292.4638	49.0703	708.1081	-0.0592	0.0182	-0.0073	-0.0462	0.0165	0.9585
33.0514	1.165	-11.4228	-0.17915	4.442	0.54395	-12.5784	6.0698	755.5606	-58.1012	286.0427	47.6053	688.6092	-0.0592	0.0182	-0.0073	-0.0462	0.0165	0.9585
33.0636	2.6249	-12.6022	-0.36083	4.8919	1.3126	-13.8975	9.1573	737.6202	-58.3153	279.0455	46.1437	667.7285	-0.0592	0.0182	-0.0073	-0.0462	0.0165	0.9585
33.0757	4.9216	-11.079	-0.65738	4.2851	2.5325	-12.2454	12.3662	719.4558	-58.6266	272.043	44.7571	646.7876	-0.0592	0.0182	-0.0073	-0.0462	0.0165	0.9585
33.0879	8.1689	-4.9457	-1.0918	1.8781	4.2693	-5.5258	15.6665	702.363	-58.9944	265.5459	43.4377	626.9712	-0.0592	0.0182	-0.0073	-0.0462	0.0165	0.9585
33.1	12.3322	8.1373	-1.6766	-3.2404	6.5169	8.8134	19.0449	687.2986	-59.2934	259.929	42.0987	609.1554	-0.0592	0.0182	-0.0073	-0.0462	0.0165	0.9585
33.1121	17.094	30.6985	-2.3915	-12.0549	9.1245	33.5383	22.4649	674.7316	-59.3348	255.3695	40.5978	593.8017	-0.0592	0.0182	-0.0073	-0.0462	0.0165	0.9585
